<?xml version="1.0" standalone="no"?>
<!DOCTYPE svg PUBLIC "-//W3C//DTD SVG 20010904//EN"
 "http://www.w3.org/TR/2001/REC-SVG-20010904/DTD/svg10.dtd">
<svg version="1.0" xmlns="http://www.w3.org/2000/svg"
 width="500.000000pt" height="500.000000pt" viewBox="0 0 500.000000 500.000000"
 preserveAspectRatio="xMidYMid meet">

<g transform="translate(0.000000,500.000000) scale(0.100000,-0.100000)"
fill="#000000" stroke="none">
<path d="M2889 3808 c-13 -34 -22 -44 -45 -48 -28 -5 -33 -16 -241 -580 -382
-1034 -434 -1170 -595 -1574 -136 -341 -158 -403 -149 -423 10 -22 14 -23 146
-23 l135 0 16 39 c13 33 21 40 46 43 25 2 33 10 44 38 75 210 506 1356 703
1868 300 779 290 702 87 702 l-132 0 -15 -42z"/>
<path d="M1330 2974 c-718 -306 -694 -295 -698 -323 -3 -16 -15 -28 -42 -38
-45 -18 -43 -12 -66 -195 -11 -91 -14 -144 -8 -158 7 -15 108 -68 344 -179
184 -86 420 -202 525 -257 104 -54 192 -100 195 -102 3 -1 21 18 39 42 19 24
39 43 45 41 6 -3 48 43 93 101 68 87 80 109 74 129 -5 22 -72 58 -451 244
-244 120 -446 223 -448 230 -6 18 88 53 125 46 27 -5 91 17 345 118 172 68
343 135 380 147 56 20 67 27 70 48 2 20 13 29 46 41 49 18 48 12 27 160 -14
101 -29 132 -60 130 -5 -1 -246 -102 -535 -225z"/>
<path d="M3378 3154 c-17 -24 -37 -44 -44 -44 -17 0 -164 -194 -164 -217 0
-27 10 -35 75 -67 33 -15 216 -105 407 -199 l348 -170 70 27 c67 27 90 27 90
3 0 -12 -434 -192 -815 -339 -188 -72 -200 -78 -197 -101 2 -20 -4 -26 -38
-37 -23 -7 -43 -17 -45 -20 -3 -4 3 -61 12 -127 13 -93 21 -123 35 -132 15 -9
102 25 500 193 266 112 545 229 621 261 119 50 137 61 137 81 0 17 10 26 43
39 l44 17 19 159 c15 120 17 164 9 179 -7 13 -56 42 -121 72 -60 27 -299 144
-531 258 l-423 208 -32 -44z"/>
</g>
</svg>
